<svg width="16" height="14" viewBox="0 0 16 14" fill="none" xmlns="http://www.w3.org/2000/svg">
<path d="M2.66669 0.333328V4.33333H1.33335V0.333328H2.66669ZM1.33335 13.6667V9.66666H2.66669V13.6667H1.33335ZM3.33335 6.99999C3.33335 7.73999 2.74002 8.33333 2.00002 8.33333C1.26669 8.33333 0.666687 7.73999 0.666687 6.99999C0.666687 6.26666 1.26669 5.66666 2.00002 5.66666C2.74002 5.66666 3.33335 6.26666 3.33335 6.99999ZM10.6667 1.66666C13.6134 1.66666 16 4.05333 16 6.99999C16 9.94666 13.6134 12.3333 10.6667 12.3333C8.26669 12.3333 6.24002 10.7467 5.56669 8.56666L4.00002 6.99999L5.56669 5.43333C6.24002 3.25333 8.26669 1.66666 10.6667 1.66666ZM10.6667 2.99999C8.46002 2.99999 6.66669 4.79333 6.66669 6.99999C6.66669 9.20666 8.46002 11 10.6667 11C12.8734 11 14.6667 9.20666 14.6667 6.99999C14.6667 4.79333 12.8734 2.99999 10.6667 2.99999ZM10 7.66666V4.33333H11V7.13333L13 8.33333L12.4534 9.17333L10 7.66666Z" fill="white" fill-opacity="0.6"/>
</svg>
